<?xml version="1.0" encoding="UTF-8"?>
<svg xmlns="http://www.w3.org/2000/svg" xmlns:xlink="http://www.w3.org/1999/xlink" width="375pt" height="374.999991pt" viewBox="0 0 375 374.999991" version="1.2">
<g id="surface1">
<path style=" stroke:none;fill-rule:nonzero;fill:rgb(0%,0%,0%);fill-opacity:1;" d="M 163.410156 9.625 C 31.273438 29.402344 -34.050781 176.332031 39.765625 287.742188 C 77.328125 344.4375 144.6875 374.402344 211.933594 364.34375 C 344.074219 344.5625 409.394531 197.636719 335.574219 86.230469 C 298.011719 29.53125 230.65625 -0.441406 163.410156 9.625 M 230.285156 293.496094 C 170.585938 317.386719 102.308594 287.003906 80.054688 226.65625 C 58.570312 168.394531 87.394531 103.542969 145.035156 80.46875 C 236.808594 132.320312 189.472656 100.75 293.234375 146.390625 C 316.761719 205.589844 287.933594 270.429688 230.285156 293.496094 M 144.765625 58.65625 L 150.023438 150.738281 L 197.363281 152.050781 L 109.261719 269.125 L 322.28125 125.742188 "/>
</g>
</svg>
